<svg width="1601" height="443" viewBox="0 0 1601 443" fill="none" xmlns="http://www.w3.org/2000/svg">
<g clip-path="url(#clip0_264_74)">
<path d="M0 102.764C0 36.2698 35.6652 0 102.765 0C169.864 0 205.529 36.2698 205.529 102.764V160.796H139.639V102.764C139.639 77.98 127.549 65.8901 102.765 65.8901C77.98 65.8901 65.89 77.98 65.89 102.764V339.727C65.89 364.511 77.98 376.601 102.765 376.601C127.549 376.601 139.639 364.511 139.639 339.727V281.695H205.529V339.727C205.529 406.221 169.864 442.491 102.765 442.491C35.6652 442.491 0 406.221 0 339.727V102.764ZM14.5079 102.764V339.727H51.3821V102.764C51.3821 70.1216 70.1215 51.3822 102.765 51.3822C135.407 51.3822 154.147 70.1216 154.147 102.764V146.288H191.021V102.764C191.021 44.1282 162.005 14.5079 102.765 14.5079C43.5237 14.5079 14.5079 44.1282 14.5079 102.764ZM247.853 381.437V418.311H416.508V381.437H247.853ZM233.345 9.67192H431.015V75.562H365.125V366.929H431.015V432.819H233.345V366.929H299.235V75.562H233.345V9.67192ZM247.853 24.1798V61.0541H416.508V24.1798H247.853ZM664.238 102.764V432.819H598.348V102.764C598.348 77.98 586.258 65.8901 561.473 65.8901C536.689 65.8901 524.599 77.98 524.599 102.764V432.819H458.709V102.764C458.709 36.2698 494.374 0 561.473 0C628.572 0 664.238 36.2698 664.238 102.764ZM473.217 102.764V418.311H510.091V102.764H473.217ZM896.978 308.293L903.628 432.819H837.738L830.484 308.898H770.638L763.989 432.819H698.099L716.234 94.9059C719.256 33.8518 744.041 0 800.863 0C857.686 0 882.47 33.8518 885.493 94.9059L893.351 243.007L896.978 308.293ZM881.261 294.39L879.448 257.515H773.661L771.243 294.39H881.261ZM774.265 243.007H827.461L819.603 94.9059C818.394 73.144 813.558 65.8901 800.863 65.8901C788.169 65.8901 783.333 73.144 782.124 94.9059L774.265 243.007ZM834.111 94.3014L841.969 243.007H878.843L870.985 95.5104L834.111 94.3014ZM845.596 308.898L851.641 418.311H888.515L882.47 308.898H845.596ZM1145.41 75.562L1071.06 196.461L1025.72 268.396L1006.38 299.226C996.101 316.152 991.265 326.428 991.265 339.727C991.265 364.511 1003.36 376.601 1028.14 376.601C1052.92 376.601 1065.01 364.511 1065.01 339.727H1130.9C1130.9 406.221 1095.24 442.491 1028.14 442.491C961.041 442.491 925.375 406.221 925.375 339.727C925.375 327.637 927.793 315.547 932.629 303.457C941.697 279.277 961.041 248.448 993.683 196.461L1068.64 75.562H942.301V9.67192H1146.02L1145.41 75.562ZM1005.77 204.32C973.735 256.306 954.996 285.927 945.928 308.898C941.697 319.779 939.883 328.846 939.883 339.727C939.883 398.363 968.899 427.983 1028.14 427.983C1081.94 427.983 1110.96 403.199 1115.79 354.235H1078.31C1073.48 377.81 1055.95 391.109 1028.14 391.109C995.497 391.109 976.757 372.37 976.757 339.727C976.757 322.801 983.407 309.502 994.288 291.367L1013.63 260.538C1024.51 243.007 1039.63 220.641 1058.97 188.603L1128.49 75.562H1085.57L1005.77 204.32ZM1370.22 339.727C1370.22 406.221 1334.56 442.491 1267.46 442.491C1200.36 442.491 1164.69 406.221 1164.69 339.122C1164.69 285.927 1187.67 252.679 1230.58 241.194V224.268C1179.81 214.596 1152.6 177.722 1152.6 116.668C1152.6 47.1507 1190.69 9.67192 1261.41 9.67192H1370.22V75.562H1261.41C1231.79 75.562 1218.49 88.861 1218.49 117.272C1218.49 147.497 1231.79 161.4 1261.41 161.4H1296.47V302.853H1267.46C1242.67 302.853 1230.58 314.943 1230.58 339.727C1230.58 364.511 1242.67 376.601 1267.46 376.601C1292.24 376.601 1304.33 364.511 1304.33 339.727H1370.22ZM1317.63 354.235C1312.8 377.81 1295.27 391.109 1267.46 391.109C1234.82 391.109 1216.08 372.37 1216.08 339.727C1216.08 307.084 1234.82 288.345 1267.46 288.345H1281.97V251.47H1267.46C1208.22 251.47 1179.2 280.486 1179.2 339.122C1179.2 398.363 1208.22 427.983 1267.46 427.983C1321.26 427.983 1350.27 403.199 1355.11 354.235H1317.63ZM1245.09 175.908V236.963H1281.97V175.908H1245.09ZM1600.38 102.764V162.005H1534.49V102.764C1534.49 77.98 1522.4 65.8901 1497.62 65.8901C1472.83 65.8901 1460.74 77.98 1460.74 102.764C1460.74 123.922 1486.13 153.542 1512.73 184.371C1521.8 194.648 1531.47 205.529 1539.93 216.41C1559.88 241.194 1600.38 282.3 1600.38 348.794C1600.38 409.244 1561.69 442.491 1497.62 442.491C1430.52 442.491 1394.85 406.221 1394.85 339.727V281.695H1460.74V340.936C1461.35 365.116 1473.44 376.601 1497.62 376.601C1522.4 376.601 1534.49 364.511 1534.49 340.331C1533.89 309.502 1502.45 274.441 1470.41 236.358C1437.77 196.461 1394.85 154.147 1394.85 96.7194C1394.85 25.9933 1443.82 0 1497.62 0C1564.72 0 1600.38 36.2698 1600.38 102.764ZM1497.62 14.5079C1449.26 14.5079 1409.36 36.2698 1409.36 96.7194C1409.36 148.102 1448.65 186.789 1481.29 227.291C1513.94 265.374 1548.39 303.457 1549 340.331C1549 372.37 1530.26 391.109 1497.62 391.109V427.983C1553.83 427.983 1585.87 401.386 1585.87 348.794C1585.87 288.345 1549 250.866 1528.45 225.477C1519.98 214.596 1511.52 204.32 1501.85 193.439C1474.65 162.609 1446.23 129.967 1446.23 102.764C1446.23 70.1216 1464.97 51.3822 1497.62 51.3822V14.5079Z" fill="black"/>
</g>
<defs>
<clipPath id="clip0_264_74">
<rect width="1601" height="443" fill="white"/>
</clipPath>
</defs>
</svg>
