<svg width="1586" height="430" viewBox="0 0 1586 430" fill="none" xmlns="http://www.w3.org/2000/svg">
<path d="M0 99.7484C0 35.2055 34.6186 0 99.7483 0C164.879 0 199.498 35.2055 199.498 99.7484V156.077H135.541V99.7484C135.541 75.6917 123.806 63.9565 99.7483 63.9565C75.6917 63.9565 63.9566 75.6917 63.9566 99.7484V329.758C63.9566 353.814 75.6917 365.549 99.7483 365.549C123.806 365.549 135.541 353.814 135.541 329.758V273.429H199.498V329.758C199.498 394.3 164.879 429.506 99.7483 429.506C34.6186 429.506 0 394.3 0 329.758V99.7484ZM14.0822 99.7484V329.758H49.8743V99.7484C49.8743 68.0639 68.0638 49.8744 99.7483 49.8744C131.433 49.8744 149.623 68.0639 149.623 99.7484V141.995H185.415V99.7484C185.415 42.8332 157.251 14.0822 99.7483 14.0822C42.2465 14.0822 14.0822 42.8332 14.0822 99.7484ZM336.807 148.45C366.145 148.45 379.641 135.541 379.641 106.789C379.641 78.0387 366.145 65.1301 336.807 65.1301C309.23 65.1301 296.321 78.0387 296.321 106.789C296.321 135.541 309.23 148.45 336.807 148.45ZM336.221 1.1735C406.045 1.1735 443.598 38.1392 443.598 106.789C443.598 175.44 406.045 212.406 336.221 212.406C268.744 212.406 232.365 175.44 232.365 106.789C232.365 38.1392 268.744 1.1735 336.221 1.1735ZM421.887 279.883V244.091H254.662V279.883H421.887ZM435.969 230.009V293.966H370.253V356.161H435.969V420.118H240.58V356.161H306.297V293.966H240.58V230.009H435.969ZM421.887 370.244H254.662V406.035H421.887V370.244ZM675.687 99.7484V420.118H611.731V99.7484C611.731 75.6917 599.995 63.9565 575.939 63.9565C551.882 63.9565 540.147 75.6917 540.147 99.7484V420.118H476.19V99.7484C476.19 35.2055 510.809 0 575.939 0C641.069 0 675.687 35.2055 675.687 99.7484ZM490.273 99.7484V406.035H526.065V99.7484H490.273ZM901.598 299.246L908.052 420.118H844.096L837.055 299.833H778.966L772.512 420.118H708.555L726.157 92.1209C729.092 32.8584 753.148 0 808.304 0C863.459 0 887.516 32.8584 890.449 92.1209L898.078 235.876L901.598 299.246ZM886.342 285.751L884.582 249.958H781.9L779.553 285.751H886.342ZM782.486 235.876H834.121L826.493 92.1209C825.319 70.9976 820.625 63.9565 808.304 63.9565C795.981 63.9565 791.288 70.9976 790.115 92.1209L782.486 235.876ZM840.575 91.5341L848.204 235.876H883.995L876.367 92.7076L840.575 91.5341ZM851.724 299.833L857.592 406.035H893.384L887.516 299.833H851.724ZM1142.74 73.3446L1070.57 190.696L1026.57 260.52L1007.78 290.445C997.814 306.874 993.116 316.849 993.116 329.758C993.116 353.814 1004.85 365.549 1028.91 365.549C1052.97 365.549 1064.7 353.814 1064.7 329.758H1128.66C1128.66 394.3 1094.05 429.506 1028.91 429.506C963.78 429.506 929.162 394.3 929.162 329.758C929.162 318.022 931.509 306.287 936.203 294.552C945.004 271.082 963.78 241.157 995.466 190.696L1068.23 73.3446H945.591V9.38809H1143.33L1142.74 73.3446ZM1007.2 198.324C976.101 248.785 957.913 277.536 949.112 299.833C945.004 310.395 943.244 319.196 943.244 329.758C943.244 386.673 971.413 415.424 1028.91 415.424C1081.14 415.424 1109.29 391.367 1113.99 343.84H1077.61C1072.91 366.723 1055.9 379.632 1028.91 379.632C997.222 379.632 979.032 361.443 979.032 329.758C979.032 313.328 985.487 300.42 996.048 282.817L1014.83 252.892C1025.39 235.876 1040.06 214.166 1058.84 183.068L1126.31 73.3446H1084.65L1007.2 198.324ZM1360.96 329.758C1360.96 394.3 1326.33 429.506 1261.21 429.506C1196.08 429.506 1161.46 394.3 1161.46 329.17C1161.46 277.536 1183.75 245.264 1225.41 234.116V217.687C1176.12 208.299 1149.72 172.507 1149.72 113.244C1149.72 45.767 1186.68 9.38809 1255.34 9.38809H1360.96V73.3446H1255.34C1226.59 73.3446 1213.68 86.2533 1213.68 113.831C1213.68 143.169 1226.59 156.664 1255.34 156.664H1289.37V293.966H1261.21C1237.15 293.966 1225.41 305.701 1225.41 329.758C1225.41 353.814 1237.15 365.549 1261.21 365.549C1285.26 365.549 1297 353.814 1297 329.758H1360.96ZM1309.91 343.84C1305.21 366.723 1288.2 379.632 1261.21 379.632C1229.52 379.632 1211.33 361.443 1211.33 329.758C1211.33 298.072 1229.52 279.883 1261.21 279.883H1275.29V244.091H1261.21C1203.7 244.091 1175.54 272.255 1175.54 329.17C1175.54 386.673 1203.7 415.424 1261.21 415.424C1313.43 415.424 1341.59 391.367 1346.29 343.84H1309.91ZM1239.5 170.746V230.009H1275.29V170.746H1239.5ZM1584.36 99.7484V157.251H1520.41V99.7484C1520.41 75.6917 1508.67 63.9565 1484.61 63.9565C1460.55 63.9565 1448.82 75.6917 1448.82 99.7484C1448.82 120.285 1473.46 149.036 1499.28 178.961C1508.08 188.936 1517.46 199.498 1525.69 210.059C1545.05 234.116 1584.36 274.016 1584.36 338.559C1584.36 397.235 1546.81 429.506 1484.61 429.506C1419.48 429.506 1384.86 394.3 1384.86 329.758V273.429H1448.82V330.931C1449.4 354.402 1461.14 365.549 1484.61 365.549C1508.67 365.549 1520.41 353.814 1520.41 330.344C1519.81 300.42 1489.31 266.387 1458.21 229.422C1426.52 190.696 1384.86 149.624 1384.86 93.8811C1384.86 25.2305 1432.39 0 1484.61 0C1549.74 0 1584.36 35.2055 1584.36 99.7484ZM1484.61 14.0822C1437.67 14.0822 1398.95 35.2055 1398.95 93.8811C1398.95 143.756 1437.08 181.308 1468.77 220.621C1500.45 257.587 1533.9 294.552 1534.48 330.344C1534.48 361.443 1516.3 379.632 1484.61 379.632V415.424C1539.18 415.424 1570.28 389.607 1570.28 338.559C1570.28 279.883 1534.48 243.504 1514.53 218.86C1506.32 208.299 1498.11 198.324 1488.71 187.762C1462.31 157.837 1434.74 126.153 1434.74 99.7484C1434.74 68.0639 1452.93 49.8744 1484.61 49.8744V14.0822Z" fill="black"/>
</svg>
